<svg width="70" height="70" viewBox="0 0 70 70" fill="none" xmlns="http://www.w3.org/2000/svg">
<mask id="mask0_122_4614" style="mask-type:luminance" maskUnits="userSpaceOnUse" x="3" y="5" width="64" height="60">
<path d="M3 5H66.5481V65H3V5Z" fill="white"/>
</mask>
<g mask="url(#mask0_122_4614)">
<path d="M60.6019 45.8275C60.6019 45.8275 60.618 45.8275 60.6226 45.8275C60.6326 45.8206 60.6418 45.8129 60.6509 45.8045C60.6624 45.7961 60.6732 45.7869 60.6831 45.7761C60.6984 45.7623 60.7115 45.747 60.7222 45.7302L60.7459 45.698C60.7567 45.6781 60.7659 45.6566 60.7735 45.6352C60.7781 45.626 60.782 45.6152 60.785 45.6053C60.7942 45.5723 60.7988 45.5394 60.7988 45.5057V17.115C60.798 17.0399 60.7766 16.9702 60.7345 16.9074C60.6923 16.8445 60.6372 16.7978 60.5674 16.7679L35.2398 5.23421C35.2084 5.17445 35.1648 5.12541 35.1073 5.08864C35.0138 5.02734 34.9127 5.01202 34.8039 5.04267C34.7618 5.03041 34.7189 5.02581 34.6752 5.02888C34.6315 5.03194 34.5894 5.0419 34.5495 5.05952C34.5097 5.07714 34.4737 5.10089 34.4415 5.13077C34.4093 5.16065 34.384 5.19513 34.3641 5.23421L9.03423 16.7679C8.96451 16.7978 8.90858 16.8445 8.86644 16.9074C8.82431 16.9702 8.80285 17.0399 8.80209 17.115V45.4965C8.80209 45.5302 8.80668 45.5631 8.81664 45.5961C8.81664 45.6076 8.81664 45.6145 8.82814 45.626C8.83963 45.6375 8.84423 45.6673 8.85572 45.6888L8.8787 45.721C8.89096 45.7371 8.90399 45.7531 8.91854 45.7669L8.95072 45.7953C8.95915 45.8029 8.96911 45.8114 8.9783 45.8183H8.99899L9.01814 45.8321L34.5357 58.1733C34.5878 58.1994 34.6438 58.2116 34.702 58.2108C34.7602 58.2108 34.8146 58.1986 34.8667 58.1733L60.5835 45.8321L60.6019 45.8275ZM52.3841 48.9281L44.4812 45.1632L51.3184 41.9024C51.3582 41.8841 51.3866 41.8549 51.4042 41.8143L59.5132 45.5057L52.3841 48.9281ZM43.1772 53.3481L35.2444 49.5671L44.0483 45.3739L51.9512 49.1411L43.1772 53.3481ZM17.6274 49.1549L25.5625 45.3739L34.3664 49.5671L26.3662 53.3779L17.6274 49.1549ZM10.0839 45.508L18.1929 41.8143C18.2097 41.8549 18.2381 41.8848 18.2779 41.9024L25.1151 45.1632L17.1869 48.9419L10.0839 45.508ZM27.5944 37.5354L34.3572 40.7586L25.5533 44.9525L18.5982 41.632L27.5944 37.5354ZM28.0579 37.3293L34.8108 34.257L41.5622 37.3293L34.8085 40.5479L28.0579 37.3293ZM42.0165 37.5354L51.015 41.632L44.0483 44.9525L35.2444 40.7586L42.0165 37.5354ZM26.0046 45.1632L34.8085 40.9693L43.6124 45.1632L34.8085 49.3541L26.0046 45.1632ZM60.0342 26.0277L59.6266 25.8423C59.6036 25.8316 59.5791 25.8262 59.5538 25.8254C59.5285 25.8247 59.504 25.8285 59.4803 25.8369C59.4565 25.8461 59.4358 25.8591 59.4174 25.8768C59.399 25.8944 59.3845 25.9143 59.3738 25.9373C59.3531 25.9855 59.3515 26.0338 59.3699 26.0829C59.3883 26.1319 59.4213 26.1679 59.4688 26.1893L60.0342 26.4468V36.2995L59.6266 36.1141C59.6036 36.1034 59.5791 36.098 59.5538 36.0965C59.5285 36.0957 59.504 36.0996 59.4803 36.1088C59.4565 36.118 59.4358 36.131 59.4174 36.1478C59.399 36.1655 59.3845 36.1854 59.3738 36.2091C59.3531 36.2566 59.3515 36.3057 59.3699 36.3547C59.3883 36.4037 59.4213 36.439 59.4688 36.4612L60.0342 36.7186V44.9035L35.2835 33.6364V25.4508L35.4896 25.5458C35.5379 25.568 35.5869 25.5703 35.6367 25.5519C35.6865 25.5343 35.7225 25.5013 35.7447 25.4531C35.7662 25.4048 35.7677 25.3565 35.7493 25.3067C35.7309 25.2569 35.6972 25.2209 35.6497 25.1987L35.2835 25.0317V15.1797L35.4896 15.2747C35.5379 15.2969 35.5869 15.2984 35.6367 15.28C35.6865 15.2609 35.7225 15.2279 35.7447 15.1797C35.7654 15.1314 35.7662 15.0831 35.7478 15.0341C35.7294 14.9851 35.6972 14.9498 35.6497 14.9268L35.2835 14.7537V6.09383L60.0342 17.3609V26.0277ZM34.5189 6.00343V14.5706L33.7543 14.92C33.7144 14.9391 33.6845 14.969 33.6646 15.0088C33.6447 15.0487 33.6393 15.0908 33.6485 15.1345C33.6585 15.1781 33.6799 15.2142 33.7144 15.2425C33.7489 15.2709 33.7887 15.2854 33.8332 15.2862C33.8608 15.2854 33.8876 15.2793 33.9121 15.2678L34.5189 14.9897V24.8516L33.7543 25.2033C33.7313 25.214 33.7114 25.2278 33.6937 25.2462C33.6769 25.2646 33.6631 25.286 33.6547 25.3098C33.6455 25.3335 33.6416 25.3581 33.6424 25.3834C33.6432 25.4086 33.6493 25.4324 33.6593 25.4554C33.6937 25.5297 33.752 25.5665 33.8332 25.5672C33.8608 25.5665 33.8876 25.5603 33.9121 25.5481L34.5189 25.2707V33.4556L9.56671 44.9012V36.7186L10.1321 36.4589C10.1804 36.4367 10.2133 36.4007 10.231 36.3509C10.2494 36.3011 10.2471 36.252 10.2248 36.2045C10.2026 36.1563 10.1674 36.1233 10.1176 36.1057C10.0685 36.0873 10.0203 36.0896 9.97277 36.1118L9.56671 36.2965V26.4468L10.1321 26.187C10.1804 26.1648 10.2133 26.1288 10.231 26.079C10.2494 26.0292 10.2471 25.981 10.2248 25.9327C10.2026 25.8852 10.1674 25.8522 10.1176 25.8339C10.0685 25.8162 10.0203 25.8178 9.97277 25.84L9.56671 26.0254V17.3609L34.5189 6.00343ZM34.702 57.4072L26.7976 53.584L34.7993 49.7709L42.7344 53.5519L34.702 57.4072ZM26.3432 18.5393C26.321 18.4918 26.3187 18.4435 26.3371 18.3937C26.3555 18.3447 26.3877 18.3087 26.4359 18.2872L28.2663 17.449C28.313 17.4329 28.359 17.4345 28.4042 17.4544C28.4494 17.4736 28.4823 17.5057 28.5023 17.5502C28.5229 17.5954 28.526 17.6406 28.5115 17.6881C28.4969 17.7348 28.4686 17.7708 28.4256 17.7961L26.5953 18.6343C26.5708 18.645 26.544 18.6504 26.5172 18.6504C26.4352 18.6511 26.3769 18.6136 26.3432 18.5393ZM30.0016 16.8629C29.9794 16.8147 29.9771 16.7664 29.9955 16.7166C30.0131 16.6668 30.0461 16.6308 30.0943 16.6086L31.9247 15.7696C31.9707 15.7543 32.0166 15.7558 32.0618 15.7758C32.107 15.7949 32.14 15.8271 32.1607 15.8715C32.1813 15.9167 32.1844 15.9619 32.1699 16.0094C32.1553 16.0562 32.1262 16.0922 32.084 16.1175L30.2537 16.9556C30.2292 16.9671 30.2024 16.9733 30.1748 16.974C30.0936 16.974 30.0353 16.9365 30.0016 16.8629ZM11.6982 25.2546C11.6882 25.2301 11.6828 25.2048 11.6836 25.178C11.6836 25.152 11.6897 25.1267 11.7005 25.1022C11.7112 25.0784 11.7273 25.0577 11.7464 25.0401C11.7663 25.0225 11.7893 25.0102 11.8146 25.0018L13.6419 24.1613C13.6656 24.1475 13.6909 24.1391 13.7177 24.136C13.7453 24.133 13.7714 24.1353 13.7974 24.1429C13.8235 24.1514 13.8465 24.1644 13.8671 24.182C13.8878 24.2004 13.9039 24.2219 13.9146 24.2464C13.9261 24.2709 13.9323 24.2969 13.9323 24.3245C13.933 24.3513 13.9277 24.3774 13.9169 24.4027C13.9062 24.428 13.8909 24.4494 13.871 24.4678C13.8511 24.4862 13.8281 24.5 13.802 24.5084L11.9717 25.3466C11.9472 25.3588 11.9203 25.365 11.8928 25.3657C11.8537 25.3673 11.8169 25.3588 11.7832 25.3381C11.7495 25.3182 11.7242 25.2899 11.7074 25.2546H11.6982ZM15.3657 23.5752C15.355 23.5522 15.3489 23.5277 15.3481 23.5024C15.3466 23.4772 15.3512 23.4519 15.3596 23.4281C15.3688 23.4044 15.3818 23.3829 15.3995 23.3645C15.4171 23.3454 15.4378 23.3308 15.4608 23.3209L17.2888 22.4804C17.3126 22.4666 17.3378 22.4582 17.3646 22.4551C17.3915 22.4513 17.4183 22.4543 17.4443 22.462C17.4704 22.4704 17.4934 22.4834 17.514 22.5011C17.534 22.5195 17.5501 22.5409 17.5616 22.5654C17.573 22.5899 17.5792 22.616 17.5792 22.6436C17.5799 22.6704 17.5746 22.6964 17.5638 22.7217C17.5531 22.7462 17.5378 22.7685 17.5171 22.7868C17.4972 22.8052 17.4742 22.819 17.4489 22.8275L15.6209 23.6679C15.5948 23.6794 15.568 23.6848 15.5397 23.684C15.4592 23.6848 15.401 23.648 15.3657 23.5752ZM19.0241 21.8966C19.0027 21.8491 19.0012 21.8 19.0203 21.751C19.0387 21.702 19.0716 21.6667 19.1191 21.6445L20.9495 20.804C20.9978 20.7826 21.046 20.781 21.0951 20.7994C21.1441 20.8178 21.1801 20.8515 21.2023 20.899C21.2123 20.922 21.2184 20.9458 21.2192 20.9711C21.2199 20.9963 21.2161 21.0209 21.2069 21.0446C21.1985 21.0684 21.1855 21.0898 21.1678 21.1082C21.1502 21.1266 21.1303 21.1411 21.1073 21.1511L19.2793 21.9916C19.231 22.0123 19.182 22.0138 19.1329 21.9954C19.0831 21.977 19.0471 21.9441 19.0241 21.8966ZM22.6848 20.2179C22.6626 20.1704 22.6603 20.1222 22.6787 20.0724C22.6971 20.0233 22.73 19.9873 22.7775 19.9659L24.6079 19.1277C24.6309 19.1154 24.6554 19.1085 24.6814 19.1062C24.7075 19.1047 24.7328 19.1078 24.7573 19.1162C24.7818 19.1246 24.804 19.1376 24.8232 19.1553C24.8423 19.1729 24.8577 19.1936 24.8684 19.2173C24.8791 19.2411 24.8845 19.2656 24.8852 19.2916C24.886 19.3177 24.8814 19.343 24.8714 19.3667C24.8623 19.3912 24.8477 19.4119 24.8293 19.4303C24.8109 19.4487 24.7895 19.4633 24.765 19.4725L22.9354 20.3106C22.9101 20.3214 22.884 20.3267 22.8565 20.3267C22.8197 20.3275 22.7852 20.3175 22.7546 20.2984C22.7231 20.2785 22.7002 20.2516 22.6848 20.2179ZM48.3066 20.899C48.3289 20.8508 48.3649 20.8178 48.4147 20.7994C48.4645 20.781 48.5127 20.7826 48.5618 20.804L50.4151 21.6445C50.4618 21.6667 50.4948 21.7027 50.5132 21.7518C50.5316 21.8 50.5308 21.8491 50.5101 21.8966C50.494 21.931 50.4703 21.9586 50.4381 21.9786C50.4067 21.9985 50.3714 22.0084 50.3339 22.0077C50.3063 22.0077 50.2803 22.0023 50.255 21.9916L48.4016 21.1511C48.3541 21.1289 48.3212 21.0936 48.302 21.0446C48.2836 20.9956 48.2852 20.9465 48.3066 20.899ZM55.6855 24.2586C55.6962 24.2356 55.7108 24.215 55.7292 24.1981C55.7475 24.1805 55.7682 24.1675 55.792 24.1583C55.8157 24.1498 55.8402 24.1452 55.8655 24.1468C55.8908 24.1475 55.9153 24.1529 55.9383 24.1636L57.7916 25.0018C57.8323 25.021 57.8621 25.0508 57.8821 25.0907C57.9012 25.1305 57.9066 25.1727 57.8974 25.2163C57.8882 25.26 57.866 25.2952 57.8315 25.3236C57.797 25.3519 57.7572 25.3673 57.7127 25.368C57.6852 25.3673 57.6591 25.3611 57.6338 25.3489L55.7805 24.5107C55.7575 24.5007 55.7376 24.4862 55.72 24.4678C55.7023 24.4494 55.6893 24.428 55.6809 24.4042C55.6717 24.3812 55.6679 24.3567 55.6686 24.3314C55.6694 24.3061 55.6748 24.2816 55.6855 24.2586ZM44.6184 19.2204C44.6406 19.1721 44.6758 19.1392 44.7249 19.1208C44.7739 19.1024 44.8229 19.1039 44.8704 19.1254L46.7245 19.9659C46.772 19.9873 46.805 20.0233 46.8226 20.0724C46.841 20.1222 46.8387 20.1704 46.8172 20.2179C46.8019 20.2524 46.7782 20.2792 46.7467 20.2999C46.7153 20.3198 46.6809 20.3298 46.6433 20.329C46.6165 20.3283 46.5912 20.3221 46.5667 20.3106L44.7134 19.4702C44.6659 19.4479 44.6337 19.4127 44.6153 19.3644C44.5969 19.3162 44.5977 19.2679 44.6184 19.2204ZM51.9972 22.5777C52.0194 22.5302 52.0547 22.4972 52.1045 22.4789C52.1535 22.4605 52.2018 22.4628 52.25 22.485L54.1034 23.3232C54.144 23.3423 54.1739 23.3714 54.1938 23.412C54.2129 23.4519 54.2183 23.494 54.2091 23.5369C54.1999 23.5806 54.1777 23.6166 54.1432 23.6449C54.1087 23.6733 54.0689 23.6878 54.0245 23.6886C53.9969 23.6886 53.9708 23.6825 53.9455 23.6702L52.0922 22.8321C52.0439 22.8098 52.0102 22.7746 51.9918 22.7248C51.9735 22.675 51.975 22.626 51.9972 22.5777ZM37.2418 15.8623C37.2518 15.8393 37.2656 15.8187 37.2839 15.801C37.3023 15.7842 37.3238 15.7704 37.3475 15.762C37.3713 15.7528 37.3958 15.7489 37.4211 15.7497C37.4471 15.7505 37.4709 15.7566 37.4939 15.7673L39.3472 16.6063C39.3878 16.6247 39.4177 16.6545 39.4376 16.6944C39.4575 16.7342 39.4621 16.7764 39.4529 16.82C39.4437 16.8637 39.4215 16.8997 39.387 16.928C39.3526 16.9564 39.3135 16.971 39.2683 16.9717C39.2407 16.9717 39.2147 16.9648 39.1901 16.9533L37.336 16.1152C37.3131 16.1044 37.2931 16.0899 37.2755 16.0715C37.2587 16.0531 37.2449 16.0324 37.2364 16.0087C37.2272 15.9849 37.2234 15.9604 37.2242 15.9351C37.225 15.9098 37.2311 15.8853 37.2418 15.8623ZM40.9301 17.5318C40.94 17.5088 40.9546 17.4889 40.973 17.4713C40.9914 17.4544 41.0128 17.4406 41.0366 17.4322C41.0603 17.423 41.0848 17.4192 41.1101 17.4199C41.1354 17.4207 41.1592 17.4268 41.1821 17.4368L43.0355 18.278C43.0592 18.288 43.0799 18.3018 43.0968 18.3202C43.1144 18.3385 43.1282 18.36 43.1366 18.3837C43.1458 18.4075 43.1496 18.432 43.1489 18.4573C43.1473 18.4826 43.142 18.5071 43.1305 18.5301C43.109 18.5776 43.073 18.6105 43.024 18.6289C42.975 18.6481 42.9259 18.6465 42.8784 18.6251L41.0251 17.7846C41.0013 17.7739 40.9814 17.7601 40.9638 17.7409C40.9469 17.7226 40.9339 17.7019 40.9247 17.6781C40.9155 17.6544 40.9117 17.6298 40.9125 17.6046C40.9132 17.5793 40.9194 17.5548 40.9301 17.5318ZM26.334 28.8042C26.3118 28.756 26.3095 28.7069 26.3279 28.6571C26.3455 28.6081 26.3785 28.5713 26.4267 28.5491L28.264 27.7201C28.3107 27.7048 28.3559 27.7063 28.4019 27.7255C28.4471 27.7454 28.48 27.7768 28.5 27.822C28.5207 27.8665 28.5237 27.9124 28.5092 27.9592C28.4946 28.0067 28.4663 28.0427 28.4233 28.068L26.593 28.9061C26.5685 28.9176 26.5424 28.9238 26.5149 28.9245C26.4344 28.923 26.3769 28.8862 26.3432 28.8134L26.334 28.8042ZM22.6848 30.499C22.6626 30.4515 22.6603 30.4024 22.6787 30.3534C22.6971 30.3044 22.73 30.2684 22.7775 30.2461L24.6079 29.408C24.6554 29.3865 24.7037 29.3842 24.7535 29.4026C24.8025 29.4202 24.8385 29.4532 24.86 29.5007C24.8822 29.5482 24.8845 29.5972 24.8661 29.6462C24.8485 29.6953 24.8155 29.7313 24.768 29.7535L22.9354 30.5848C22.9101 30.5955 22.884 30.6009 22.8565 30.6009C22.7775 30.6032 22.7201 30.5695 22.6848 30.499ZM19.0241 32.1776C19.0027 32.1294 19.0012 32.0811 19.0203 32.0321C19.0387 31.983 19.0716 31.947 19.1191 31.9256L20.9495 31.0843C20.9978 31.0636 21.046 31.0621 21.0951 31.0805C21.1441 31.0989 21.1801 31.1318 21.2023 31.1793C21.2123 31.2023 21.2184 31.2268 21.2192 31.2521C21.2199 31.2774 21.2161 31.3019 21.2069 31.3257C21.1985 31.3494 21.1855 31.3701 21.1678 31.3885C21.1502 31.4069 21.1303 31.4214 21.1073 31.4322L19.2793 32.2726C19.231 32.2933 19.182 32.2941 19.1329 32.2765C19.0831 32.2581 19.0471 32.2251 19.0241 32.1776ZM15.3657 33.8563C15.3558 33.8333 15.3497 33.8095 15.3489 33.7835C15.3481 33.7582 15.352 33.7337 15.3612 33.7107C15.3696 33.687 15.3826 33.6655 15.4002 33.6471C15.4178 33.6287 15.4378 33.6142 15.4608 33.6042L17.2888 32.7637C17.3126 32.7492 17.3378 32.7407 17.3646 32.7377C17.3915 32.7346 17.4183 32.7369 17.4443 32.7453C17.4704 32.7538 17.4934 32.7668 17.514 32.7844C17.534 32.802 17.5501 32.8235 17.5616 32.8488C17.573 32.8733 17.5792 32.8993 17.5792 32.9262C17.5799 32.9537 17.5746 32.9798 17.5638 33.0043C17.5531 33.0296 17.5378 33.051 17.5171 33.0702C17.4972 33.0886 17.4742 33.1016 17.4489 33.1108L15.6209 33.9513C15.5948 33.962 15.568 33.9674 15.5397 33.9674C15.5014 33.9666 15.4661 33.9551 15.4347 33.9337C15.4033 33.9114 15.3803 33.8823 15.3657 33.8471V33.8563ZM11.7074 35.5349C11.6966 35.5119 11.6905 35.4882 11.6897 35.4621C11.689 35.4369 11.6928 35.4123 11.702 35.3886C11.7104 35.3648 11.7242 35.3441 11.7411 35.3258C11.7587 35.3074 11.7794 35.2928 11.8024 35.2829L13.6304 34.4355C13.6542 34.4217 13.6794 34.4125 13.7063 34.4094C13.7331 34.4064 13.7599 34.4087 13.7859 34.4171C13.812 34.4255 13.835 34.4386 13.8557 34.4562C13.8763 34.4738 13.8917 34.4952 13.9032 34.5205C13.9146 34.545 13.9208 34.5711 13.9208 34.5979C13.9215 34.6255 13.9162 34.6515 13.9055 34.6768C13.8947 34.7013 13.8794 34.7236 13.8595 34.7419C13.8396 34.7603 13.8166 34.7741 13.7905 34.7826L11.9602 35.6207C11.9357 35.633 11.9089 35.6391 11.8813 35.6391C11.7993 35.6384 11.7411 35.6008 11.7074 35.5257V35.5349ZM30.0108 27.144C29.9886 27.0957 29.9863 27.0467 30.0047 26.9969C30.0223 26.9478 30.0553 26.9118 30.1035 26.8888L31.9339 26.0507C31.9798 26.0346 32.0258 26.0369 32.071 26.056C32.117 26.076 32.1499 26.1074 32.1699 26.1526C32.1905 26.197 32.1936 26.243 32.179 26.2897C32.1645 26.3372 32.1361 26.3732 32.0932 26.3977L30.2629 27.2367C30.2384 27.2482 30.2123 27.2543 30.1847 27.2551C30.1441 27.2558 30.1074 27.2451 30.0736 27.2229C30.0407 27.2014 30.0162 27.1716 30.0016 27.1348L30.0108 27.144ZM52.0064 32.858C52.0286 32.8105 52.0646 32.7775 52.1137 32.7599C52.1627 32.7415 52.2117 32.7438 52.2592 32.766L54.1126 33.6042C54.1532 33.6234 54.1831 33.6525 54.203 33.6923C54.2221 33.7329 54.2275 33.7743 54.2183 33.818C54.2091 33.8616 54.1869 33.8976 54.1524 33.926C54.1179 33.9543 54.0781 33.9689 54.0337 33.9697C54.0061 33.9697 53.98 33.9635 53.9547 33.9513L52.1014 33.1131C52.0761 33.1031 52.0539 33.0893 52.0348 33.0702C52.0156 33.051 52.001 33.0288 51.9911 33.0043C51.9811 32.979 51.9765 32.953 51.9781 32.9262C51.9788 32.8986 51.9857 32.8733 51.9972 32.8488L52.0064 32.858ZM40.9301 27.8128C40.94 27.7898 40.9546 27.7699 40.973 27.7523C40.9914 27.7347 41.0128 27.7217 41.0366 27.7125C41.0603 27.704 41.0848 27.7002 41.1101 27.701C41.1354 27.7017 41.1592 27.7071 41.1821 27.7178L43.0355 28.5583C43.0592 28.569 43.0792 28.5836 43.0968 28.602C43.1136 28.6204 43.1267 28.641 43.1358 28.6648C43.145 28.6885 43.1489 28.7131 43.1481 28.7383C43.1473 28.7636 43.1412 28.7881 43.1305 28.8111C43.109 28.8586 43.073 28.8916 43.024 28.91C42.975 28.9284 42.9259 28.9268 42.8784 28.9061L41.0251 28.0649C41.0013 28.0549 40.9814 28.0404 40.9638 28.022C40.9469 28.0036 40.9339 27.9829 40.9247 27.9592C40.9155 27.9354 40.9117 27.9109 40.9125 27.8856C40.9132 27.8603 40.9194 27.8358 40.9301 27.8128ZM44.6184 29.4915C44.6406 29.444 44.6758 29.411 44.7249 29.3926C44.7739 29.3743 44.8229 29.375 44.8704 29.3965L46.7245 30.2369C46.772 30.2592 46.805 30.2952 46.8226 30.3442C46.841 30.3932 46.8387 30.4423 46.8172 30.4898C46.8019 30.5235 46.7782 30.5511 46.7467 30.571C46.7153 30.5917 46.6809 30.6009 46.6433 30.6009C46.6157 30.6009 46.5897 30.5955 46.5644 30.5848L44.7111 29.7443C44.6636 29.7213 44.6314 29.6861 44.613 29.6371C44.5954 29.588 44.5969 29.539 44.6184 29.4915ZM37.2418 26.1342C37.2518 26.1112 37.2656 26.0905 37.2839 26.0729C37.3023 26.0553 37.3238 26.0422 37.3475 26.0331C37.3713 26.0239 37.3958 26.02 37.4211 26.0216C37.4471 26.0223 37.4709 26.0285 37.4939 26.0392L39.3472 26.8797C39.3702 26.8904 39.3909 26.9042 39.4085 26.9226C39.4254 26.9417 39.4384 26.9624 39.4476 26.9861C39.4568 27.0099 39.4606 27.0344 39.4598 27.0597C39.4591 27.085 39.4529 27.1087 39.4422 27.1325C39.4077 27.206 39.3503 27.2428 39.2683 27.2436C39.2415 27.2436 39.2147 27.2382 39.1901 27.2267L37.336 26.3862C37.3131 26.3763 37.2931 26.3617 37.2755 26.3433C37.2587 26.325 37.2449 26.3035 37.2364 26.2798C37.2272 26.2568 37.2234 26.2323 37.2242 26.207C37.225 26.1817 37.2311 26.1572 37.2418 26.1342ZM48.3066 31.1701C48.3289 31.1226 48.3649 31.0897 48.4147 31.0713C48.4645 31.0529 48.5127 31.0537 48.5618 31.0751L50.4151 31.9156C50.4618 31.9386 50.4948 31.9738 50.5132 32.0229C50.5316 32.0719 50.5308 32.1202 50.5101 32.1684C50.494 32.2029 50.4703 32.2297 50.4381 32.2504C50.4067 32.2703 50.3714 32.2803 50.3339 32.2795C50.3063 32.2795 50.2803 32.2742 50.255 32.2634L48.4016 31.423C48.3541 31.4007 48.3212 31.3647 48.302 31.3157C48.2836 31.2667 48.2852 31.2184 48.3066 31.1701ZM57.8775 35.528C57.843 35.6016 57.7848 35.6391 57.7035 35.6391C57.676 35.6399 57.6499 35.6338 57.6246 35.6207L55.7713 34.7826C55.7238 34.7611 55.6901 34.7251 55.6717 34.6761C55.6533 34.627 55.6548 34.578 55.6763 34.5305C55.6985 34.4822 55.7338 34.4493 55.7828 34.4301C55.8326 34.4117 55.8809 34.4133 55.9291 34.4355L57.7825 35.2737C57.8307 35.2951 57.8644 35.3311 57.8828 35.3809C57.9012 35.4307 57.8997 35.4798 57.8775 35.528ZM66.5373 49.6153C66.5373 53.0561 63.5677 56.3169 58.1786 58.7939C52.9771 61.1835 45.8994 62.6936 38.2332 63.0407H38.2072C38.1313 63.0422 38.0585 63.0292 37.988 63.0024C37.9168 62.9748 37.854 62.935 37.7996 62.8821C37.7444 62.83 37.7015 62.7687 37.6716 62.6998C37.641 62.63 37.6249 62.5573 37.6226 62.4814C37.6211 62.4056 37.6341 62.3328 37.6617 62.2615C37.6892 62.191 37.7291 62.1282 37.7812 62.0738C37.834 62.0186 37.8946 61.9757 37.9643 61.9451C38.0332 61.9152 38.106 61.8984 38.1819 61.8968C53.4384 61.2027 65.3912 55.8097 65.3912 49.6245C65.3912 47.6892 64.2044 45.7417 61.9595 43.9979C61.8937 43.9542 61.8393 43.8991 61.7956 43.8324C61.7527 43.7665 61.7243 43.6937 61.7113 43.6156C61.6983 43.5374 61.7013 43.46 61.7205 43.3834C61.7397 43.306 61.7734 43.2363 61.8216 43.1735C61.8699 43.1107 61.9289 43.0601 61.9986 43.021C62.0676 42.9827 62.1419 42.9597 62.2208 42.9521C62.2997 42.9444 62.3771 42.9528 62.4522 42.9774C62.528 43.0019 62.5954 43.0402 62.6544 43.0931C65.1965 45.0544 66.5373 47.3115 66.5373 49.6153ZM33.2448 62.5174C33.2394 62.6178 33.2095 62.7105 33.1544 62.7955C33.1 62.8798 33.0279 62.9457 32.9391 62.9924L29.2577 64.9162C29.191 64.9523 29.1198 64.9745 29.0447 64.9821C28.9689 64.9898 28.8953 64.9829 28.8225 64.9615C28.7497 64.9392 28.6846 64.9048 28.6256 64.8565C28.5666 64.809 28.5199 64.7515 28.4839 64.6849C28.4486 64.6182 28.4272 64.547 28.4195 64.4719C28.4119 64.3968 28.4188 64.3232 28.441 64.2505C28.4624 64.1784 28.4969 64.1126 28.5444 64.0536C28.5919 63.9953 28.6494 63.9478 28.7153 63.9118L30.4483 63.0062C14.7245 62.1029 3.01071 56.4326 3.01071 49.6153C3.01071 47.1613 4.52081 44.7763 7.3801 42.7153C7.44139 42.6671 7.50958 42.6318 7.58466 42.6119C7.66051 42.5912 7.73636 42.5859 7.81375 42.5966C7.89113 42.6073 7.96391 42.6326 8.03057 42.6732C8.09799 42.713 8.15392 42.7651 8.19989 42.828C8.24586 42.8916 8.27727 42.9613 8.29413 43.0371C8.31175 43.1137 8.31251 43.1904 8.29872 43.267C8.28416 43.3436 8.25582 43.4148 8.21215 43.48C8.16924 43.5451 8.11484 43.5987 8.04972 43.6416C5.50302 45.4804 4.16914 47.5452 4.16914 49.6153C4.16914 55.7515 15.7527 61.0632 30.7402 61.8647L28.9773 60.6648C28.9145 60.6227 28.8624 60.5691 28.8202 60.5063C28.7788 60.4427 28.7505 60.3737 28.7367 60.2986C28.7221 60.2243 28.7229 60.15 28.7382 60.0757C28.7536 60.0014 28.7827 59.9324 28.8256 59.8696C28.8685 59.8068 28.9214 59.7547 28.9849 59.7133C29.0485 59.6711 29.1175 59.6436 29.1918 59.629C29.2669 59.6152 29.3412 59.6152 29.4155 59.6313C29.4898 59.6466 29.5588 59.6757 29.6216 59.7179L32.995 62.0102C33.0777 62.0669 33.1421 62.1405 33.1865 62.2309C33.231 62.3213 33.2509 62.417 33.2448 62.5174Z" fill="url(#paint0_linear_122_4614)"/>
</g>
<defs>
<linearGradient id="paint0_linear_122_4614" x1="3.01071" y1="35.0063" x2="66.5373" y2="35.0063" gradientUnits="userSpaceOnUse">
<stop stop-color="#0CBAF1"/>
<stop offset="1" stop-color="#E95CE9"/>
</linearGradient>
</defs>
</svg>
